<?xml version="1.0" encoding="utf-8"?>
<!-- Generator: Adobe Illustrator 25.2.3, SVG Export Plug-In . SVG Version: 6.00 Build 0)  -->
<svg version="1.1" id="Layer_3" xmlns="http://www.w3.org/2000/svg" xmlns:xlink="http://www.w3.org/1999/xlink" x="0px" y="0px"
	 width="300px" height="70px" viewBox="0 0 300 70" style="enable-background:new 0 0 300 70;" xml:space="preserve">
<style type="text/css">
	.st0{fill:#FFFFFF;}
	.st1{fill:url(#SVGID_1_);}
	.st2{fill:url(#SVGID_2_);}
	.st3{fill:url(#SVGID_3_);}
	.st4{fill:url(#SVGID_4_);}
	.st5{fill:url(#SVGID_5_);}
	.st6{opacity:0.4;fill:url(#SVGID_6_);enable-background:new    ;}
</style>
	<g id="Layer_2_2_">
	<g id="Toitu_Logos">
		<g id="Badge_Toitu">
			<g id="_Group_">
				<path class="st0" d="M95.9,5.6c-2.1,0-3.9-0.1-6.3-0.1c0,0.6,0,1.4,0,1.8v10.5c0,1.1,0,3.3,0.1,4.1h-5c0.1-1.4,0.2-5.1,0.2-7v-5
					c0-1.1,0-3-0.1-4.5c-2.4,0-4.4,0-6.4,0.1c0.1-1.2,0.1-2.7,0.1-4c2.7,0.1,5.4,0.1,8.7,0.1s6.1-0.1,8.8-0.1
					C96,3,95.9,4.3,95.9,5.6z"/>
				<path class="st0" d="M100,22.6c-3.7,0.1-6.9-2.8-7-6.5c0-0.2,0-0.3,0-0.5c0-4.4,2.9-7.7,7.3-7.7c3.7-0.1,6.9,2.8,7,6.5
					c0,0.2,0,0.3,0,0.5C107.4,19.3,104.5,22.6,100,22.6z M100.3,11.1c-1.8,0-3,1.5-3,4c0,3,1.2,4.2,2.9,4.2c1.9,0,3-1.5,3-4
					C103.2,12.3,101.9,11.1,100.3,11.1z"/>
				<path class="st0" d="M111.8,5.8c-1.3,0.1-2.4-0.9-2.5-2.2c0,0,0-0.1,0-0.1c0-1.4,1.1-2.4,2.5-2.4c0,0,0.1,0,0.1,0
					c1.3-0.1,2.4,0.9,2.5,2.3c0,0,0,0,0,0c0,1.3-1.1,2.4-2.5,2.4C111.8,5.8,111.8,5.8,111.8,5.8z M109.3,22.1
					c0.1-1.6,0.2-3.1,0.2-4.7v-4.1c0-1.7-0.1-3.7-0.2-4.9c1,0,3.8-0.2,4.7-0.3c-0.1,0.7-0.1,2.1-0.1,3.1v8.1c0,0.9,0,1.9,0.1,2.8
					L109.3,22.1z"/>
				<path class="st0" d="M125.4,21.7c-1,0.5-2.1,0.8-3.2,0.8c-2.9,0-4.5-1.2-4.5-4.8v-6.5h-2.4l0.7-3.1h1.7l0.3-2.8l4-1.3v4.2h3.5
					c-0.1,0.6-0.1,2.1-0.1,3.1H122v6c0,1.4,0.5,1.8,1.5,1.8c0.7,0,1.4-0.2,2.1-0.6L125.4,21.7z"/>
				<path class="st0" d="M137.2,22.1l-0.5-2.4c-0.9,1.7-2.7,2.8-4.7,2.9c-3,0-4.6-1.8-4.6-5.2v-4.2c0-1.6-0.1-3.4-0.1-4.8
					c1.6,0,3.3-0.1,4.6-0.2c-0.1,1.1-0.2,2.1-0.1,3.2v4.9c0,2,0.5,2.9,2.1,2.9c1.4-0.1,2.6-1.2,2.7-2.7v-3.3c0-1.6-0.1-3.4-0.2-4.8
					c1.6,0,3.3-0.1,4.7-0.2c-0.1,1.1-0.2,2.1-0.2,3.2v5.9c0,1.6,0.1,3.2,0.2,4.8L137.2,22.1z M139.2,5.4c-1.3,0-2.3-0.1-3.4-0.1h-3
					c-1.4,0-2.4,0-3.4,0.1c0.1-0.7,0.1-2.1,0.1-2.9c1.6,0.1,2.8,0.1,5,0.1c1.5,0,3.3,0,4.9-0.1C139.3,3.3,139.2,4.4,139.2,5.4z"/>
				<path class="st0" d="M165.1,5.6c-2.1,0-3.9-0.1-6.3-0.1c0,0.6,0,1.4,0,1.8v10.5c0,1.1,0,3.3,0.1,4.1h-5c0.1-1.4,0.2-5.1,0.2-7
					v-5c0-1.1,0-3-0.1-4.5c-2.4,0-4.4,0-6.4,0.1c0.1-1.2,0.1-2.7,0.1-4c2.7,0.1,5.4,0.1,8.7,0.1s6.1-0.1,8.9-0.1
					C165.2,3,165.1,4.3,165.1,5.6z"/>
				<path class="st0" d="M175.1,15.8l-8,0.2c0.1,2.1,1.4,3.2,3.7,3.2c1.8,0,3.6-0.6,5.2-1.6l-0.1,3.3c-1.7,1.1-3.6,1.6-5.6,1.6
					c-5,0-7.4-3.2-7.4-7.1c0-4.4,3-7.6,7.4-7.6c4.4,0,6.2,3,6.2,6.8L175.1,15.8z M172.6,13.8c-0.2-1.8-0.9-2.8-2.5-2.8
					c-1.7,0-2.7,1.3-3,3L172.6,13.8z"/>
				<path class="st0" d="M205.8,16.6c-0.9,2.5-1.4,4-1.9,5.7l-3,0.3l-4.6-13.3l-2.7,8c-0.5,1.6-1.2,3.3-1.8,5.2h-3l-5.1-14.7
					c-0.6-1.8-1.4-4.1-2.1-5.9l5-0.2l4.1,13.6l2.8-8.8c0.4-1.2,1.2-3.6,1.6-4.8l2.8-0.3l4.6,13.7l2.5-8.6l1.4-4.7h4.8L205.8,16.6z"
				/>
				<path class="st0" d="M220.9,22.1c0.1-1.2,0.2-3.2,0.2-4.9V14c0-1.7-0.4-2.6-1.8-2.6c-1.6,0-2.9,1.3-3,2.9v5c0,1,0,1.9,0.1,2.9
					h-4.6c0.1-1.2,0.2-3.1,0.2-4.8v-11c0-1.7-0.1-3.4-0.2-4.6c1-0.1,3.8-0.3,4.6-0.5c-0.1,0.8-0.1,3.3-0.1,3.8v6
					c1-1.8,2.9-2.9,5-3.1c2.9,0,4.2,1.8,4.2,4.9v6.3c0,1,0.1,2.2,0.1,3H220.9z"/>
				<path class="st0" d="M239.7,15.8l-8,0.2c0.1,2.1,1.4,3.2,3.7,3.2c1.9,0,3.7-0.6,5.2-1.6l-0.1,3.3c-1.7,1.1-3.6,1.6-5.6,1.6
					c-5,0-7.4-3.2-7.4-7.1c0-4.4,3-7.6,7.4-7.6s6.2,3,6.2,6.8L239.7,15.8z M237.2,13.8c-0.2-1.8-0.9-2.8-2.5-2.8c-1.7,0-2.7,1.3-3,3
					L237.2,13.8z"/>
				<path class="st0" d="M252.1,22.1c0.1-1.2,0.2-3.2,0.2-4.9V14c0-1.7-0.4-2.6-1.8-2.6c-1.6,0.1-2.9,1.3-3,2.9v4.9c0,1,0,2,0.1,3
					H243c0.1-1.2,0.2-3.2,0.2-4.9v-4c0-1.7-0.1-3.5-0.2-4.8c1,0,3.4-0.3,4.3-0.4l0.2,2.9c1-1.8,2.9-3,5-3.1c2.9,0,4.2,1.8,4.2,4.9
					v6.3c0,1,0.1,2.2,0.1,3H252.1z"/>
				<path class="st0" d="M269.1,22.1l-0.5-2.4c-0.9,1.7-2.7,2.8-4.7,2.9c-3,0-4.5-1.8-4.5-5.2v-4.2c0-1.6-0.1-3.4-0.1-4.8
					c1.6,0,3.3-0.1,4.6-0.2c-0.1,1.1-0.2,2.1-0.1,3.2v4.9c0,2,0.5,2.9,2.1,2.9c1.4-0.1,2.6-1.2,2.7-2.7v-3.3c0-1.6-0.1-3.4-0.2-4.8
					c1.6,0,3.3-0.1,4.7-0.2c-0.1,1.1-0.2,2.1-0.2,3.2v5.9c0,1.6,0.1,3.2,0.2,4.8L269.1,22.1z"/>
				<path class="st0" d="M274.9,18.6c0-2.7,2.4-4.6,7.1-4.6c0.3,0,0.7,0,1.1,0.1l0-0.4c0.1-1.5-0.6-2.3-2.4-2.3
					c-1.5,0-2.9,0.5-4.2,1.3l-0.6-3.2c1.7-1,3.7-1.5,5.6-1.5c4,0,5.8,1.9,5.7,5.5l-0.1,5c0,0.8,0.2,1.1,0.8,1.1
					c0.3,0,0.6-0.1,0.9-0.2l-0.2,2.6c-0.7,0.3-1.5,0.4-2.3,0.5c-1.4,0-2.6-0.6-3-2.3c-0.9,1.4-2.5,2.3-4.2,2.3
					C276.5,22.4,274.9,21,274.9,18.6z M283,17.3V16c-0.3,0-0.6-0.1-0.9-0.1c-2.3,0-3.2,0.9-3.2,2.1c-0.1,0.9,0.6,1.6,1.5,1.7
					c0.1,0,0.2,0,0.3,0C282,19.8,282.9,18.8,283,17.3z"/>
				<path class="st0" d="M93.2,46.2c-1.4-0.1-3-0.1-4.7-0.1s-3.4,0-4.9,0.1c0.1-1,0.1-3.8,0.1-5.2v-4.7c0-1.4,0-4.1-0.1-5.1
					c0.8,0,2.9,0,3.6-0.1c-0.1,0.6-0.1,2.3-0.1,3.1v8c0,0.4,0,0.8,0,1.2c0.5,0,1.1,0,1.7,0c1.6,0,3,0,4.4-0.1
					C93.3,44.2,93.2,45.1,93.2,46.2z"/>
				<path class="st0" d="M94.3,43.5c0-2.1,1.7-3.4,5.2-3.4c0.2,0,0.5,0,0.8,0v-0.3c0-1.1-0.4-1.7-1.7-1.7c-1.1,0-2.2,0.4-3.1,0.9
					l-0.4-2.4c1.3-0.7,2.7-1.1,4.2-1.1c2.9,0,4.3,1.4,4.2,4.1l-0.1,3.7c0,0.6,0.2,0.8,0.6,0.8c0.2,0,0.4,0,0.6-0.1l-0.2,1.9
					c-0.5,0.2-1.1,0.3-1.7,0.3c-1.1,0.1-2-0.6-2.2-1.7c-0.7,1.1-1.9,1.7-3.1,1.7C95.6,46.4,94.3,45.3,94.3,43.5z M100.3,42.6v-1
					c-0.2,0-0.4,0-0.7,0c-1.7,0-2.4,0.7-2.4,1.6c0,0.7,0.5,1.2,1.1,1.3c0.1,0,0.1,0,0.2,0c0.9,0,1.7-0.7,1.7-1.7
					C100.3,42.7,100.3,42.6,100.3,42.6L100.3,42.6z"/>
				<path class="st0" d="M112.6,46.1c0.1-0.9,0.1-2.4,0.1-3.6v-2.4c0-1.2-0.3-2-1.4-2c-1.2,0-2.1,1-2.2,2.1v3.6c0,0.7,0,1.6,0.1,2.2
					h-3.4c0.1-0.9,0.1-2.4,0.1-3.6v-2.9c0-1.2,0-2.6-0.1-3.5c0.7,0,2.5-0.2,3.2-0.3l0.2,2.1c0.8-1.4,2.2-2.2,3.8-2.3
					c2.1,0,3.1,1.4,3.1,3.6v4.7c0,0.7,0,1.6,0.1,2.2H112.6z"/>
				<path class="st0" d="M124.9,36.3v-1.9c0-1.2,0-2.5-0.1-3.4c0.8-0.1,2.8-0.3,3.4-0.4c-0.1,0.6-0.1,1.6-0.1,2.3v9.6
					c0,1.2,0,2.6,0.2,3.5h-3.1L125,45c-0.7,0.9-1.8,1.4-2.9,1.4c-2.8,0-4.5-2.4-4.5-5c0-3.3,2.1-5.8,5.1-5.8
					C123.4,35.6,124.2,35.8,124.9,36.3z M120.8,41.1c0,2,1,3,2.3,3c0.7,0,1.4-0.4,1.8-1v-4.5c-0.5-0.4-1.1-0.7-1.7-0.6
					C121.6,38,120.8,39.4,120.8,41.1z"/>
				<path class="st0" d="M135.3,46.1c0.1-1,0.2-3.7,0.2-5.1v-4.7c0-1.4,0-4.1-0.2-5.1c0.8,0,3,0,3.7-0.1c-0.1,0.6-0.1,2.3-0.1,3.1
					V43c0,0.8,0,2.5,0.1,3.1H135.3z"/>
				<path class="st0" d="M148.3,46.1c0.1-0.9,0.2-2.4,0.2-3.6v-2.4c0-1.2-0.3-2-1.4-2c-1.2,0-2.1,1-2.2,2.1v3.6c0,0.7,0,1.6,0.1,2.2
					h-3.4c0.1-0.9,0.1-2.4,0.1-3.6v-2.9c0-1.2,0-2.6-0.1-3.5c0.7,0,2.5-0.2,3.2-0.3l0.2,2.1c0.8-1.3,2.2-2.2,3.7-2.3
					c2.1,0,3.1,1.4,3.1,3.6v4.7c0,0.7,0,1.6,0.1,2.2H148.3z"/>
				<path class="st0" d="M160.4,33.3c-0.3-0.1-0.6-0.2-1-0.2c-1.1,0-1.7,0.7-1.7,2.1v0.7h2.5c-0.1,0.5-0.1,1.5-0.1,2.3h-2.4v5.9
					c0,0.7,0,1.4,0.1,2.1h-3.4c0.1-1.2,0.2-2.3,0.2-3.5v-4.5h-1.8l0.5-2.3h1.3v-0.5c0-2.9,1.5-4.7,4.3-4.7c0.5,0,0.9,0.1,1.4,0.2
					L160.4,33.3z"/>
				<path class="st0" d="M165.9,46.5c-2.8,0.1-5.1-2.1-5.1-4.8c0-0.1,0-0.2,0-0.3c0-3.3,2.2-5.7,5.4-5.7c2.8-0.1,5.1,2,5.2,4.8
					c0,0.1,0,0.3,0,0.4C171.3,44,169.2,46.5,165.9,46.5z M166.1,38c-1.3,0-2.2,1.1-2.2,3c0,2.2,0.9,3.1,2.1,3.1c1.4,0,2.2-1.1,2.2-3
					C168.2,38.9,167.3,38,166.1,38z"/>
				<path class="st0" d="M179.6,38.7c-1.6-0.2-3.4,0.3-3.4,2.1v3c0,0.7,0,1.6,0.1,2.2h-3.4c0.1-1.2,0.1-2.4,0.1-3.6v-3.1
					c0-1.1,0-2.2-0.2-3.2c1.1-0.1,2.1-0.2,3.2-0.4l0.2,2.4c0.6-1.5,2.1-2.4,3.6-2.5L179.6,38.7z"/>
				<path class="st0" d="M193.8,46.1c0.1-1.2,0.1-2.4,0.1-3.6v-2.4c0-1.2-0.3-2-1.3-2c-1.1,0-2,0.9-2,1.9c0,0,0,0,0,0v3.8
					c0,0.7,0,1.6,0.1,2.2h-3.4c0.1-0.9,0.1-2.4,0.1-3.6v-2.3c0-1.2-0.2-2-1.2-2c-1.1,0-2,0.9-2,2v3.8c0,0.7,0,1.5,0.1,2.2h-3.4
					c0.1-0.9,0.1-2.4,0.1-3.6v-2.9c0-1.2,0-2.6-0.1-3.5c0.7,0,2.5-0.2,3.2-0.3l0.2,1.9c0.7-1.2,2-2,3.4-2.1c1.4-0.1,2.6,0.8,2.9,2.1
					c0.7-1.3,2.1-2.1,3.5-2.1c2.1,0,3.1,1.4,3.1,3.6v4.7c0,0.7,0,1.5,0.1,2.2L193.8,46.1z"/>
				<path class="st0" d="M198.7,43.5c0-2.1,1.7-3.4,5.2-3.4c0.2,0,0.5,0,0.8,0v-0.3c0-1.1-0.4-1.7-1.7-1.7c-1.1,0-2.2,0.4-3.1,0.9
					l-0.4-2.4c1.3-0.7,2.7-1.1,4.2-1.1c2.9,0,4.3,1.4,4.2,4.1l-0.1,3.7c0,0.6,0.2,0.8,0.6,0.8c0.2,0,0.4,0,0.6-0.1l-0.1,1.9
					c-0.5,0.2-1.1,0.3-1.7,0.3c-1.1,0.1-2-0.6-2.2-1.7c-0.7,1.1-1.9,1.7-3.1,1.7C199.9,46.4,198.7,45.3,198.7,43.5z M204.7,42.6v-1
					c-0.2,0-0.4,0-0.7,0c-1.7,0-2.4,0.7-2.4,1.6c0,0.7,0.5,1.2,1.1,1.3c0.1,0,0.1,0,0.2,0c1,0,1.7-0.7,1.8-1.7
					C204.7,42.7,204.7,42.6,204.7,42.6L204.7,42.6z"/>
				<path class="st0" d="M216.5,45.8c-0.7,0.4-1.5,0.6-2.4,0.6c-2.1,0-3.4-0.9-3.4-3.5v-4.8H209l0.5-2.3h1.3l0.2-2.1l3-1v3.1h2.6
					c0,0.5-0.1,1.5-0.1,2.3H214v4.4c0,1.1,0.4,1.3,1.1,1.3c0.5,0,1.1-0.2,1.5-0.5L216.5,45.8z"/>
				<path class="st0" d="M219.9,34.1c-1,0.1-1.8-0.6-1.8-1.6c0,0,0,0,0-0.1c0-1,0.8-1.8,1.8-1.8c0,0,0,0,0.1,0c1,0,1.8,0.7,1.8,1.7
					c0,0,0,0,0,0C221.8,33.3,221,34.1,219.9,34.1C220,34.1,219.9,34.1,219.9,34.1z M218.1,46.1c0.1-1.2,0.2-2.3,0.2-3.5v-3
					c0-1.2,0-2.4-0.2-3.6c0.8,0,2.8-0.1,3.4-0.2c-0.1,0.5-0.1,1.5-0.1,2.3v6c0,0.7,0,1.4,0.1,2.1L218.1,46.1z"/>
				<path class="st0" d="M228.2,46.5c-2.8,0.1-5.1-2.1-5.1-4.8c0-0.1,0-0.2,0-0.3c0-3.3,2.2-5.7,5.4-5.7c2.7-0.1,5.1,2.1,5.1,4.8
					c0,0.1,0,0.2,0,0.4C233.6,44,231.5,46.5,228.2,46.5z M228.4,38c-1.3,0-2.2,1.1-2.2,3c0,2.2,0.9,3.1,2.1,3.1c1.4,0,2.2-1.1,2.2-3
					C230.5,38.9,229.6,38,228.4,38z"/>
				<path class="st0" d="M242,46.1c0.1-1.2,0.2-2.4,0.2-3.6v-2.4c0-1.2-0.3-2-1.3-2c-1.2,0-2.1,1-2.2,2.1v3.6c0,0.7,0,1.5,0.1,2.2
					h-3.4c0.1-0.9,0.1-2.4,0.1-3.6v-2.9c0-1.2,0-2.6-0.1-3.5c0.7,0,2.5-0.2,3.2-0.3l0.2,2.1c0.8-1.3,2.2-2.2,3.7-2.3
					c2.1,0,3.1,1.4,3.1,3.6v4.7c0,0.7,0,1.6,0.1,2.2H242z"/>
				<path class="st0" d="M83.7,62.2l0-4.9c0-1.4,0-4-0.1-5l2.1-0.2l8,9.6v-4.2c0-1.4,0-4.1-0.2-5.1c0.8,0,2.8,0,3.5-0.1
					c-0.1,0.6-0.1,2.3-0.1,3.1L97,64.4c0,0.8,0,2.5,0,3.1L95,67.7l-8-9.6v6.2c0,0.8,0,2.5,0.1,3.1h-3.5
					C83.6,66.3,83.7,63.6,83.7,62.2z"/>
				<path class="st0" d="M108.2,62.8l-5.9,0.2c0.1,1.6,1,2.4,2.7,2.4c1.4,0,2.7-0.4,3.8-1.2l0,2.4c-1.2,0.8-2.7,1.2-4.1,1.2
					c-3.7,0-5.4-2.4-5.4-5.2c0-3.3,2.2-5.6,5.4-5.6c3.2,0,4.6,2.2,4.6,5L108.2,62.8z M106.3,61.2c-0.1-1.4-0.7-2.1-1.8-2.1
					s-2.1,0.9-2.2,2.2L106.3,61.2z"/>
				<path class="st0" d="M111.9,64l-1-2.7c-0.5-1.3-1.1-3-1.5-3.9c0.3,0,2.8-0.2,3.2-0.2l1.9,6l0.8-2.3l1.2-3.6l2.1-0.1l2.1,6
					l0.8-2.3c0.1-0.4,0.9-3,1.1-3.6c1.2,0,2.1,0,3.1-0.1l-3.8,10.3l-2.2,0.1c-0.3-1.1-0.8-2.4-1.3-3.8l-0.8-2.1l-2.1,5.9l-2.3,0.1
					C112.8,66.5,112.4,65.3,111.9,64z"/>
				<path class="st0" d="M143.4,53.8l-8,10.9h2.6c1.8,0,3.9,0,5.1-0.1c-0.1,0.9-0.2,1.8-0.2,2.8c-1.3-0.1-3.7-0.1-5.8-0.1
					c-2.4,0-4.7,0-6.3,0.1l-0.3-1.6l8-10.8h-2.3c-1.9,0-3.6,0-5,0c0.1-0.8,0.2-1.9,0.3-2.8c2.1,0.1,3,0.1,5.8,0.1
					c2.7,0,4.4,0,5.8-0.1L143.4,53.8z"/>
				<path class="st0" d="M153.2,62.8l-5.9,0.2c0.1,1.6,1,2.4,2.7,2.4c1.4,0,2.7-0.4,3.8-1.2l-0.1,2.4c-1.2,0.8-2.7,1.2-4.1,1.2
					c-3.7,0-5.4-2.4-5.4-5.2c0-3.3,2.2-5.6,5.4-5.6c3.2,0,4.6,2.2,4.6,5L153.2,62.8z M151.4,61.2c-0.1-1.4-0.7-2.1-1.8-2.1
					s-2.1,0.9-2.2,2.2L151.4,61.2z"/>
				<path class="st0" d="M155.1,64.8c0-2.1,1.7-3.4,5.2-3.4c0.2,0,0.5,0,0.8,0v-0.3c0-1.1-0.4-1.7-1.7-1.7c-1.1,0-2.2,0.4-3.1,0.9
					l-0.4-2.4c1.3-0.7,2.7-1.1,4.2-1.1c2.9,0,4.3,1.4,4.2,4.1l-0.1,3.7c0,0.6,0.2,0.8,0.6,0.8c0.2,0,0.4,0,0.6-0.1l-0.2,1.9
					c-0.5,0.2-1.1,0.3-1.7,0.3c-1.1,0.1-2-0.6-2.2-1.7c-0.7,1.1-1.9,1.7-3.1,1.7C156.3,67.6,155.1,66.6,155.1,64.8z M161.1,63.9v-1
					c-0.2,0-0.5,0-0.7,0c-1.7,0-2.4,0.7-2.4,1.6c0,0.7,0.5,1.2,1.1,1.3c0.1,0,0.1,0,0.2,0c1,0,1.7-0.7,1.8-1.7
					C161.1,63.9,161.1,63.9,161.1,63.9L161.1,63.9z"/>
				<path class="st0" d="M166.6,67.4c0.1-0.9,0.1-2.3,0.1-3.6v-8.1c0-1.2,0-2.5-0.1-3.4c0.7,0,2.8-0.3,3.4-0.4
					c-0.1,0.6-0.1,2.4-0.1,2.8v10.5c0,0.7,0,1.6,0.1,2.1H166.6z"/>
				<path class="st0" d="M171.5,64.8c0-2.1,1.7-3.4,5.2-3.4c0.2,0,0.5,0,0.8,0v-0.3c0-1.1-0.4-1.7-1.7-1.7c-1.1,0-2.2,0.4-3.1,0.9
					l-0.4-2.4c1.3-0.7,2.7-1.1,4.2-1.1c2.9,0,4.3,1.4,4.2,4.1l-0.1,3.7c0,0.6,0.2,0.8,0.6,0.8c0.2,0,0.4,0,0.6-0.1l-0.1,1.9
					c-0.5,0.2-1.1,0.3-1.7,0.3c-1,0.1-2-0.6-2.2-1.7c-0.7,1.1-1.8,1.7-3.1,1.7C172.7,67.6,171.5,66.6,171.5,64.8z M177.4,63.9v-1
					c-0.2,0-0.4,0-0.7,0c-1.7,0-2.4,0.7-2.4,1.6c0,0.7,0.5,1.2,1.1,1.3c0.1,0,0.1,0,0.2,0c0.9,0,1.7-0.7,1.8-1.7
					C177.4,64,177.4,63.9,177.4,63.9L177.4,63.9z"/>
				<path class="st0" d="M189.7,67.4c0.1-1.2,0.2-2.4,0.2-3.6v-2.4c0-1.2-0.3-2-1.3-2c-1.2,0-2.1,1-2.2,2.1v3.6c0,0.7,0,1.5,0.1,2.2
					H183c0.1-0.9,0.1-2.4,0.1-3.6v-2.9c0-1.2,0-2.6-0.1-3.5c0.7,0,2.5-0.2,3.2-0.3l0.1,2.1c0.8-1.3,2.2-2.2,3.7-2.3
					c2.1,0,3.1,1.4,3.1,3.6v4.7c0,0.7,0,1.6,0.1,2.2L189.7,67.4z"/>
				<path class="st0" d="M202,57.5v-1.9c0-1.2,0-2.5-0.1-3.4c0.8-0.1,2.8-0.3,3.4-0.4c-0.1,0.6-0.1,1.6-0.1,2.3v9.6
					c0,1.2,0,2.4,0.2,3.5h-3.1l-0.1-1.1c-0.7,0.9-1.8,1.4-2.9,1.4c-2.8,0-4.5-2.4-4.5-5c0-3.3,2.1-5.8,5.1-5.8
					C200.5,56.8,201.3,57.1,202,57.5z M197.9,62.4c0,2.1,1,3,2.3,3c0.7,0,1.4-0.4,1.8-1v-4.5c-0.5-0.4-1.1-0.7-1.7-0.6
					C198.8,59.2,197.9,60.7,197.9,62.4L197.9,62.4z"/>
			</g>
			<path class="st0" d="M73,15.1c-0.5-1-1.5-1.6-2.6-1.7l-1.1-0.1c0.1-0.1,0.1-0.2,0.2-0.4c0.9-1.5,0.4-3.4-1.1-4.4
				c-0.4-0.3-0.9-0.4-1.4-0.4h-0.2h-0.1h-0.1h-0.2h-0.1L64.8,8c0-1.7-1.3-3.1-2.9-3.2l-0.6,0h-0.1C55.4,4.3,49.4,4,43.6,4
				c-1.3,0-3.3,0-4.6,0.1l-0.3-0.3c-0.3-0.4-0.6-0.8-0.9-1.2c-0.3-0.4-0.7-0.8-1.2-1c-0.5-0.3-1-0.4-1.6-0.4H35h-0.7l0,0h-0.5l0,0
				c-2.4,0.1-4.6,0.2-6.9,0.4h-0.2c-2.2,0.2-4.1,0.3-5.9,0.5c-0.7,0.1-1.4,0.4-1.9,0.9c-3,3-5.9,7.5-8.9,13.2v0.1
				c-0.1,0.1-0.1,0.3-0.2,0.4c-1.1,2.2-2.2,4.5-3.2,6.9c0,0,0,0,0,0.1L6.4,24c-0.9,2.2-1.8,4.5-2.7,6.9l0,0.1l-0.1,0.3l-0.1,0.2
				c0,0,0,0.1,0,0.1C2.7,33.8,2,36,1.3,38.3c0,0,0,0.1,0,0.1l-0.1,0.3l0,0.1c0,0,0,0.1,0,0.1c-0.9,2.8-1.6,5.5-2.1,8l0,0V47v0l0,0.2
				l-0.1,0.3c-0.3,1.7,0.8,3.4,2.5,3.7c0.2,0,0.4,0.1,0.6,0.1h0.1c-0.1,0.4-0.2,0.8-0.3,1.2v0.1l-0.1,0.6c-0.4,1.7,0.7,3.4,2.5,3.8
				C4.6,57,4.8,57,5,57h0.1c-0.1,0.4-0.2,0.8-0.3,1.2c0,0,0,0.1,0,0.1v0.1l0,0v0.1c0,0,0,0.1,0,0.1v0.2c-0.4,1.7,0.7,3.4,2.5,3.8
				c0.2,0,0.3,0.1,0.5,0.1H8c-0.1,0.3-0.1,0.7-0.2,1c-0.3,1.7,0.8,3.4,2.5,3.7c0.2,0,0.4,0.1,0.6,0.1c0.2,0,0.3,0,0.5,0
				c6.3-0.8,12.6-1.2,18.9-1.2c8.3,0,16.6,0.5,24.8,1.5c0.1,0,0.3,0,0.4,0c1.6,0,2.9-1.1,3.1-2.7c2.2-14.7,7.1-34.7,14.4-47
				C73.5,17.3,73.5,16.1,73,15.1z"/>

			<linearGradient id="SVGID_1_" gradientUnits="userSpaceOnUse" x1="25.4018" y1="46.2142" x2="67.5174" y2="4.0917" gradientTransform="matrix(1 0 0 -1 0 72)">
				<stop  offset="0" style="stop-color:#73C8E1"/>
				<stop  offset="1" style="stop-color:#007199"/>
			</linearGradient>
			<path class="st1" d="M70.2,16.8C55.7,15.6,42,15.9,32.3,17c-9.1,9.3-18.5,32.1-21.6,47.8C21,63.3,38.1,63,55.4,65.2
				C57.5,50.8,62.5,29.9,70.2,16.8z"/>

			<linearGradient id="SVGID_2_" gradientUnits="userSpaceOnUse" x1="22.1654" y1="51.3419" x2="63.835" y2="9.6723" gradientTransform="matrix(1 0 0 -1 0 72)">
				<stop  offset="0" style="stop-color:#75CBC7"/>
				<stop  offset="1" style="stop-color:#008782"/>
			</linearGradient>
			<path class="st2" d="M66.6,11.5c-14.5-1.2-28.1-0.9-37.9,0.3c-9.1,9.3-17.9,32.3-21,47.9c10.4-1.5,25.9-2,42.5-0.5
				C53,42.9,58.4,25.3,66.6,11.5z"/>
			<path class="st0" d="M7.6,59.9l0.1-0.6c11.4-1.7,27.1-1.9,42.2-0.5c3.2-18.2,8.9-34.9,16.3-47.4l0.6,0
				C59.4,24,53.5,41.1,50.4,59.3l0,0.3h-0.2C35,58.1,19,58.3,7.6,59.9z"/>

			<linearGradient id="SVGID_3_" gradientUnits="userSpaceOnUse" x1="18.7094" y1="55.3306" x2="58.6911" y2="15.3558" gradientTransform="matrix(1 0 0 -1 0 72)">
				<stop  offset="0" style="stop-color:#9DD19A"/>
				<stop  offset="0.5" style="stop-color:#06A24A"/>
			</linearGradient>
			<path class="st3" d="M45.6,32.4l1.5-4l7.1-8.1c0.3-0.1,0.6-0.1,0.9-0.1C56.9,16,59,12,61.3,8.1c-13.9-1.2-27-0.9-36.4,0.2
				C16.3,17.1,7.7,39.1,4.8,53.9c5.4-0.7,10.8-1.2,16.2-1.3c-0.3-0.2-0.1-1.4-0.1-1.5c0.4-1.6,1.5-2.8,3-4.1c1.5-1.3,0.8-2.1,2-2.6
				c2.5-1.1,4.9-2.5,7.1-4.1c2.8-2.1,3.8-9.2,3.9-8.7c0.1,0.5,1.1,0.3,1.1,0.7c0,0.4,0.3,1.2,0.5,1.3s1-2.1,2.9-2.2
				c1.2,0.1,2.4,0.5,3.3,1.3c0.1,0,0.8-0.1,0.8-0.1L45.6,32.4z"/>
			<path class="st0" d="M54.9,21.1l-0.5-0.3l0.4-0.7c1.8-4.1,3.9-8.2,6.2-12l0.6,0c-2.4,3.9-4.5,8-6.3,12.2L54.9,21.1z"/>
			<path class="st0" d="M36.8,7.1c-0.2,0.1,0.1,0.2,0.5,0.7c0.5,0.6,0.9,1.3,1.2,2.1c0,0.4-0.5,0.2,0.1,0.8c0.5,0.6,2.3,3.2,2.5,3.7
				s0.5,0.3,0.5,0.1c0-0.3,0.3,0.2,0.4,0.5c0,0.2-0.2,0.1-0.2,0.2s0.6,0.8,1,2.1c0.5,1.4,1,2.1,0.9,3.5c-0.1,1.3-0.4,3.3-1.4,3.8
				c-1,0.5-1.9,0.6-1.8,1.6c0.1,1,1.1,1.1,1.8,1.6c0.7,0.5,1.8,0.3,2.2,1.3s-0.1,2.7-0.8,3.4s-0.9,1.1-0.6,1.4
				c0.3,0.3,0.6,0.3,0.9,0.2s0.5,0.1,0.5,0.5s0.2,0.5,1.3-0.2s1.6-2.1,2.5-3.1c0.8-1,1.4-2.1,2-3.2c0.1-0.2,0.1-0.3-0.3-0.4
				c-0.4-0.1-0.5-0.5-0.4-0.9c0,0,0-0.1,0-0.1c0.4-0.9,1.2-1,1.9-1.2c0.4-0.1,0.7-0.1,1.1,0c0.3,0.3,0.1,0.8,0.2,0.7
				c0.2-0.2,0.3-0.4,0.4-0.7c0-0.1,0-0.1-0.1-0.2c-0.1,0-0.3-0.3-0.1-0.9c0.3-0.8,1.2-0.5,1.4-1.9c0.3-1.3,1-2.1,0.6-2.6
				c-0.4-0.5-1.2-0.3-1.9-0.1c-0.6,0.3-1.4,1.6-2.3,1.3c-0.9-0.3-3-0.9-3.3-1.5c-0.4-1.1-0.7-2.2-0.9-3.3c-0.1-0.8-0.7-0.5-1-0.9
				c-0.3-0.4-0.5,0.3-0.4,1c0.1,0.7,0.8,1.4,0.3,1.7s-0.8-1-1.4-1.3s-0.9-0.6-0.8-1.9c0.1-1.3-1.1-1.5-0.9-2.2
				c0.2-0.7,0.4-1.4-1.1-2.4c-1.5-1-2.1-0.8-2.6-1.3c-0.5-0.5-1-0.8-1-1.3s0.4-0.7-0.4-0.5C37.1,7.1,37,7,36.8,7.1z"/>
			<path class="st0" d="M41.2,36.2c0.3-0.3,0.5-0.7,0.6-1.1c0.1-0.2-0.7-0.2-0.7-0.7c0-0.6,0.4-1.1,0.4-1.4c0-0.2-0.2-0.1-0.3-0.1
				c-0.1,0-0.3-0.1-0.3-0.2c-0.1-0.3-0.4-0.3-1-0.1c-0.6,0.2-1.2,1-1.4,0.9c-0.2,0-0.5-0.9-0.5-1.3s-1.1-0.2-1-0.8
				c0-0.2,0.1-0.4,0.2-0.5c0,0,0.1-0.1,0-0.2c-0.8-0.1-1.4,0.8-1.8,1.2C35,32.3,36,33.7,35,34.5c-1,0.8-1.4,0.6-1.5,1
				c-0.3,2-1.3,3.8-2.9,4.9c-2.7,2.2-4.2,3.5-5.4,4s-1.4,2.1-2.8,3.4c-1.4,1.3-2.3,4.2-1.5,5c0.6,0.5,1.4,0.7,2.1,0.4
				c0.4-0.1,0.8,0,1.1,0.3c0.2,0.3,0.9-0.1,1.3,0.3c0.6,0.4,1.4,0.6,2.1,0.5c1-0.1,2.7-0.9,4.1-3.1c1.4-2.3,1.2-4.3,1.5-5.1
				c0.4-1.1,1.3-2,2.5-2.4c1.2-0.3,1.4-0.5,1.8-0.3s1.3,0.3,1.2-0.4s-1.1-0.5-1.1-1.1c0-0.6-0.2-1,0.6-1.4c0.8-0.3,1.2-1.4,1.7-2.3
				C40.1,37.3,40.7,37,41.2,36.2z"/>

			<linearGradient id="SVGID_4_" gradientUnits="userSpaceOnUse" x1="10.235" y1="54.1843" x2="40.4254" y2="23.987" gradientTransform="matrix(1 0 0 -1 0 72)">
				<stop  offset="0" style="stop-color:#9DD19A"/>
				<stop  offset="1" style="stop-color:#06A24A"/>
			</linearGradient>
			<path class="st4" d="M44.5,28.9c-0.1-0.1-0.2-0.3-0.3-0.4c-0.1-0.1-0.2-0.2-0.3-0.2c-0.5-0.3-1.2-0.3-1.6-0.7
				C41.6,27,40.6,27,40.5,26s0.8-1.1,1.8-1.6c1-0.5,1.3-2.4,1.4-3.8c0.1-1.3-0.4-2.1-0.9-3.5c-0.5-1.2-1-1.9-1-2.1s0.2,0,0.2-0.2
				c-0.1-0.3-0.4-0.6-0.4-0.5s-0.3,0.4-0.5-0.1c-0.3-0.4-2.1-3.1-2.5-3.7s-0.1-0.4-0.1-0.8c-0.3-0.8-0.7-1.5-1.2-2.1
				c-0.1-0.2-0.3-0.3-0.4-0.5l0,0c-0.1,0-0.1,0,0,0c-0.1-0.1-0.1-0.1-0.1-0.2c-0.4-0.9-0.9-1.7-1.5-2.5c-0.1-0.1-0.2-0.2-0.4-0.3
				c-4.9,0.1-10.2,0.5-14,0.9C12.8,13.6,4.8,33.7,2,47.9c4.2-0.6,13.1-1.3,19.2-1.4h0.8l0.8,0h0.9c0.5-0.9,0.9-1.6,1.6-1.9
				c1.1-0.5,2.7-1.8,5.4-4c1.6-1.2,2.7-3,2.9-4.9c0.1-0.4,0.5-0.2,1.5-1c1-0.8,0-2.3,0.4-2.7c0.4-0.4,1-1.3,1.8-1.2
				c0.1,0,0,0.1,0,0.2c-0.1,0.2-0.2,0.3-0.2,0.5c0,0.5,1,0.3,1,0.8c0,0.4,0.3,1.3,0.5,1.3s0.7-0.7,1.4-0.9l0.2-0.1l0,0
				c0.1,0,0.2-0.1,0.3-0.1l0,0c0.6,0,1.2,0.1,1.8,0.4c0.3,0.2,0.5,0.4,0.7,0.7c0-0.2,0.2-0.6,0.7-1.1C44.4,31.6,44.9,29.8,44.5,28.9
				z"/>
			<path class="st0" d="M20.6,52.4c-5.3,0.1-10.5,0.6-15.8,1.3l-0.1,0.6c5.4-0.7,10.8-1.1,16.3-1.3c0,0-0.1-0.1-0.1-0.1
				C20.8,52.7,20.7,52.5,20.6,52.4z"/>
			<path class="st0" d="M23.6,46.4h-0.9l-0.8,0h-0.8c-6.1,0.1-15,0.8-19.2,1.4v0.1v0.2l-0.1,0.3c4.1-0.6,13.2-1.3,19.3-1.4H22l1.2,0
				c0.1-0.1,0.2-0.2,0.3-0.4l0,0L23.6,46.4L23.6,46.4z"/>
			<path class="st0" d="M24.3,54.5c-0.5-0.2-0.3,0.3-0.3,0.7c0,0.4-0.2,0.3-0.3,0.7c-0.1,0.3-0.2,0.7-0.1,0.9s0.2,0.2,0.5-0.1
				c0.3-0.3,0.3-0.3,0.7-0.3s0.6-0.1,0.6-0.6C25.2,55.1,24.8,54.7,24.3,54.5z"/>

			<linearGradient id="SVGID_5_" gradientUnits="userSpaceOnUse" x1="13.9802" y1="60.3853" x2="30.4409" y2="30.0783" gradientTransform="matrix(1 0 0 -1 0 72)">
				<stop  offset="0" style="stop-color:#FFFFFF;stop-opacity:0.9"/>
				<stop  offset="1" style="stop-color:#FFFFFF;stop-opacity:0.1"/>
			</linearGradient>
			<path class="st5" d="M7.5,47.3h0.4c0.7-2.7,1.3-5.3,2.1-7.7c1.9-0.1,4.2-0.2,6.6-0.3c-0.7,2.4-1.4,4.9-2.1,7.6H15
				c0.7-2.7,1.3-5.2,2.1-7.5c2.1-0.1,4.3-0.2,6.6-0.2c-0.7,2.4-1.4,4.9-2.1,7.5h0.2H22c0.6-2.6,1.3-5.1,2.1-7.5c2.2,0,4.4,0,6.6,0
				c-0.2,0.6-0.4,1.2-0.5,1.8c0.1-0.1,0.2-0.2,0.4-0.3l0.2-0.2c0.1-0.5,0.3-0.9,0.4-1.4h0.9c0.1-0.1,0.2-0.3,0.3-0.4h-1.1
				c0.7-2.4,1.5-4.7,2.3-6.9l2.1,0c0.1-0.1,0.2-0.2,0.4-0.4c-0.7,0-1.5,0-2.3-0.1c0.9-2.5,1.8-4.7,2.7-6.9c1.8,0,3.6,0.1,5.4,0.2
				c0.2-0.1,0.4-0.2,0.5-0.3c0.1,0,0.1-0.1,0.2-0.1c-1.9-0.1-3.9-0.2-5.9-0.2c1.1-2.5,2.2-4.8,3.2-6.9c1,0,2.1,0,3.1,0.1l-0.1-0.2
				L42.7,17c-0.9,0-1.8-0.1-2.7-0.1c0.4-0.8,0.8-1.5,1.2-2.3c-0.1-0.1-0.1-0.1-0.1-0.2L41,14.3c-0.5,0.8-0.9,1.7-1.4,2.6
				c-2.2,0-4.4,0-6.6,0c1.4-2.7,2.7-5,4-6.9h1.5c0,0,0-0.1,0-0.1c0-0.1,0-0.2-0.1-0.3h-1.2c0.2-0.4,0.5-0.7,0.7-1
				c-0.1-0.1-0.2-0.2-0.2-0.4c-0.3,0.4-0.6,0.9-0.9,1.4c-2.3,0-4.5,0.1-6.5,0.2c1.2-1.9,2.6-3.7,4.1-5.4h-0.5
				c-1.5,1.7-2.8,3.5-4,5.4c-2.4,0.1-4.6,0.2-6.5,0.3c1.2-1.9,2.6-3.7,4.1-5.5l-0.6,0c-1.5,1.7-2.8,3.5-4,5.4
				c-3,0.2-5.1,0.3-5.9,0.4c-0.1,0.1-0.2,0.3-0.3,0.4c0.4,0,2.6-0.2,5.9-0.4c-1.2,1.8-2.5,4.1-4,6.9c-3,0.2-5.1,0.4-5.9,0.4
				l-0.2,0.4c0.5,0,2.7-0.2,5.9-0.4c-1.1,2-2.1,4.3-3.2,6.8c-2.8,0.2-4.9,0.3-5.8,0.4l-0.2,0.4c0.7-0.1,2.9-0.2,5.8-0.4
				c-0.9,2.1-1.8,4.4-2.7,6.9c-2.9,0.2-5,0.4-5.7,0.4l-0.1,0.4c0.5,0,2.6-0.2,5.7-0.4c-0.8,2.1-1.5,4.4-2.3,6.9
				c-2.9,0.2-5,0.3-5.7,0.4C4,39.7,4,39.9,4,40c0.5,0,2.6-0.2,5.7-0.4C8.9,42,8.2,44.5,7.5,47.3z M23.8,38.5c-2.3,0-4.5,0.1-6.6,0.2
				c0.7-2.4,1.5-4.7,2.3-6.9c2.1-0.1,4.3-0.2,6.6-0.2C25.3,33.9,24.6,36.1,23.8,38.5z M28.9,24.5c-0.9,2.1-1.8,4.4-2.7,6.9
				c-2.3,0-4.5,0.1-6.6,0.2c0.9-2.5,1.8-4.7,2.7-6.9C24.4,24.6,26.6,24.5,28.9,24.5z M22.5,24.2c1.1-2.5,2.2-4.8,3.3-6.9
				c2.1-0.1,4.3-0.2,6.6-0.2c-1,2.1-2.1,4.3-3.2,6.9C26.8,24.1,24.6,24.2,22.5,24.2z M30.9,38.5c-2.2,0-4.4,0-6.6,0
				c0.7-2.4,1.5-4.7,2.3-6.9c2.2,0,4.4,0,6.6,0C32.4,33.8,31.6,36.1,30.9,38.5z M33.3,31.3c-2.2,0-4.4,0-6.6,0
				c0.9-2.5,1.8-4.7,2.7-6.9c2.2,0,4.4,0,6.6,0C35.1,26.6,34.2,28.8,33.3,31.3z M39.4,17.2c-1,2.1-2.1,4.3-3.2,6.9
				c-2.2,0-4.4,0-6.6,0c1.1-2.5,2.2-4.8,3.2-6.9C34.9,17.2,37.2,17.2,39.4,17.2L39.4,17.2z M29.9,10.2c2.1-0.1,4.3-0.2,6.5-0.2
				c-1.2,1.9-2.5,4.1-3.9,6.9c-2.3,0-4.5,0.1-6.6,0.2C27.4,14.3,28.7,12,29.9,10.2z M22.9,10.5c1.9-0.1,4.1-0.2,6.6-0.3
				c-1.2,1.8-2.5,4.1-4,6.9c-2.4,0.1-4.7,0.2-6.6,0.3C20.3,14.6,21.7,12.4,22.9,10.5z M18.7,17.8c1.9-0.1,4.2-0.2,6.6-0.3
				c-1,2.1-2.1,4.3-3.2,6.9c-2.4,0.1-4.7,0.2-6.6,0.3C16.5,22.1,17.6,19.8,18.7,17.8z M15.3,25c1.9-0.1,4.2-0.2,6.6-0.3
				c-0.9,2.1-1.8,4.4-2.7,6.9c-2.5,0.1-4.7,0.2-6.6,0.3C13.4,29.4,14.4,27.1,15.3,25z M12.4,32.3c1.9-0.1,4.2-0.2,6.6-0.3
				c-0.8,2.1-1.5,4.4-2.2,6.8c-2.5,0.1-4.7,0.2-6.6,0.3C10.9,36.7,11.6,34.4,12.4,32.3z"/>

			<linearGradient id="SVGID_6_" gradientUnits="userSpaceOnUse" x1="39.2931" y1="43.2156" x2="41.7906" y2="38.6047" gradientTransform="matrix(1 0 0 -1 0 72)">
				<stop  offset="0" style="stop-color:#FFF799;stop-opacity:0.9"/>
				<stop  offset="1" style="stop-color:#FFF8A3;stop-opacity:0.1"/>
			</linearGradient>
			<path class="st6" d="M40.7,31.6c0.5-1.4,1-2.7,1.5-4c-0.1-0.1-0.2-0.2-0.3-0.2c-0.5,1.4-1.1,2.7-1.6,4.2c-1-0.1-2.1-0.1-3.2-0.2
				c0,0.3,0.3,0.3,0.6,0.4c0.8,0,1.6,0.1,2.4,0.1L40,32.6H40c0.1-0.1,0.3-0.1,0.4-0.1l0.2-0.4c1.1,0.1,2.2,0.2,3.2,0.3
				c0.1-0.1,0.2-0.2,0.2-0.4C43,31.8,41.9,31.7,40.7,31.6z"/>
		</g>
	</g>
</g>
</svg>
