<?xml version="1.0" encoding="utf-8"?>
<!-- Generator: Adobe Illustrator 27.7.0, SVG Export Plug-In . SVG Version: 6.00 Build 0)  -->
<svg version="1.1" id="Layer_1" xmlns="http://www.w3.org/2000/svg" xmlns:xlink="http://www.w3.org/1999/xlink" x="0px" y="0px"
	 viewBox="0 0 211 56" style="enable-background:new 0 0 211 56;" xml:space="preserve">
<style type="text/css">
	.st0{opacity:0.8;}
	.st1{fill:#FFFFFF;}
</style>
<g class="st0">
	<path class="st1" d="M1.372,39.363l0.066-3.981c0.017-1.061,0-3.052-0.066-3.848l0.431-0.116l7.662,8.873v-4.595
		c0-1.061-0.033-3.201-0.133-3.997c0.647,0,1.277-0.016,1.841-0.083c-0.066,0.481-0.116,1.808-0.133,2.455l-0.116,7
		c-0.017,0.647-0.017,1.989,0.033,2.454l-0.431,0.116l-7.597-8.741v6.071c0,0.647,0.017,1.923,0.066,2.388H1.173
		C1.273,42.564,1.355,40.441,1.372,39.363z"/>
	<path class="st1" d="M18.455,38.733c-0.166-1.278-0.696-1.957-1.84-1.957c-1.228,0-2.007,0.895-2.223,2.073L18.455,38.733z
		 M18.886,39.861l-4.528,0.132c0.116,1.542,0.912,2.322,2.388,2.322c1.161,0,2.024-0.514,2.77-1.127l-0.067,1.558
		c-0.846,0.564-1.758,0.912-2.852,0.912c-2.554,0-3.765-1.807-3.765-3.881c0-2.388,1.51-4.278,3.865-4.278
		c2.256,0,3.185,1.691,3.185,3.764L18.886,39.861z"/>
	<path class="st1" d="M22.203,40.739l-0.797-2.123c-0.364-0.978-0.779-2.09-1.111-2.803l1.675-0.215l1.708,5.257l0.747-2.156
		c0.398-1.128,0.746-2.173,0.995-3.003l1.112-0.099l1.874,5.224l0.68-2.139c0.199-0.615,0.663-2.157,0.879-2.987
		c0.596,0,1.127-0.016,1.625-0.066l-2.72,7.796l-0.978,0.116c-0.25-0.878-0.614-1.99-1.046-3.167l-0.879-2.356l-1.858,5.407
		l-0.995,0.116C22.916,42.762,22.552,41.718,22.203,40.739z"/>
	<path class="st1" d="M44.543,31.9L37.412,42c0.629,0,1.575,0.016,2.222,0.016c1.691,0,3.433-0.016,4.544-0.049
		c-0.083,0.464-0.116,0.929-0.132,1.46c-0.945-0.066-2.803-0.083-4.28-0.083c-1.807,0-3.466,0.017-4.61,0.083l-0.331-0.315
		l7.132-10.084c-0.713-0.017-1.31-0.017-2.123-0.017c-1.626,0-3.019,0.017-4.263,0.033c0.05-0.415,0.066-0.929,0.066-1.443
		c1.476,0.05,2.239,0.084,4.213,0.084c1.974,0,3.334-0.034,4.378-0.084L44.543,31.9z"/>
	<path class="st1" d="M50.529,38.733c-0.166-1.278-0.696-1.957-1.84-1.957c-1.228,0-2.007,0.895-2.223,2.073L50.529,38.733z
		 M50.961,39.861l-4.528,0.132c0.117,1.542,0.912,2.322,2.389,2.322c1.16,0,2.024-0.514,2.77-1.127l-0.067,1.558
		c-0.845,0.564-1.758,0.912-2.852,0.912c-2.554,0-3.765-1.807-3.765-3.881c0-2.388,1.51-4.278,3.865-4.278
		c2.256,0,3.185,1.691,3.185,3.764L50.961,39.861z"/>
	<path class="st1" d="M57.38,40.524l0.033-0.747c-0.231-0.016-0.447-0.032-0.679-0.032c-1.858,0-2.505,0.679-2.505,1.509
		c0,0.63,0.348,1.111,1.261,1.111C56.55,42.365,57.33,41.585,57.38,40.524z M52.752,41.337c0-1.543,1.377-2.571,4.03-2.571
		c0.215,0,0.432,0.016,0.647,0.033l0.017-0.249c0.033-1.144-0.448-1.708-1.609-1.708c-0.763,0-1.575,0.331-2.106,0.73l-0.348-1.326
		c0.828-0.481,1.725-0.747,2.702-0.747c1.975,0,2.903,1.194,2.854,2.952l-0.1,3.284c-0.016,0.464,0.117,0.664,0.481,0.664
		c0.199,0,0.415-0.05,0.663-0.133l-0.149,1.061c-0.283,0.116-0.597,0.232-0.996,0.232c-0.63,0-1.21-0.431-1.293-1.293
		c-0.448,0.78-1.327,1.326-2.388,1.326C53.698,43.591,52.752,42.696,52.752,41.337z"/>
	<path class="st1" d="M60.945,43.36c0.083-0.714,0.116-1.742,0.116-2.721v-6.319c0-0.962-0.033-2.024-0.116-2.737
		c0.597-0.049,1.211-0.116,1.709-0.215c-0.05,0.431-0.067,1.243-0.067,1.807v8.575c0,0.579,0.017,1.177,0.067,1.609H60.945z"/>
	<path class="st1" d="M68.64,40.524l0.033-0.747c-0.232-0.016-0.447-0.032-0.679-0.032c-1.858,0-2.505,0.679-2.505,1.509
		c0,0.63,0.348,1.111,1.261,1.111C67.811,42.365,68.59,41.585,68.64,40.524z M64.013,41.337c0-1.543,1.377-2.571,4.03-2.571
		c0.215,0,0.431,0.016,0.647,0.033l0.017-0.249c0.033-1.144-0.448-1.708-1.609-1.708c-0.763,0-1.575,0.331-2.106,0.73l-0.348-1.326
		c0.828-0.481,1.725-0.747,2.702-0.747c1.975,0,2.903,1.194,2.854,2.952l-0.1,3.284c-0.016,0.464,0.117,0.664,0.481,0.664
		c0.199,0,0.415-0.05,0.663-0.133l-0.149,1.061c-0.283,0.116-0.597,0.232-0.996,0.232c-0.63,0-1.21-0.431-1.293-1.293
		c-0.448,0.78-1.327,1.326-2.388,1.326C64.958,43.591,64.013,42.696,64.013,41.337z"/>
	<path class="st1" d="M77.33,43.36c0.083-0.714,0.116-1.858,0.116-2.819v-1.992c0-0.961-0.315-1.707-1.326-1.707
		c-1.095,0-2.272,1.077-2.272,2.072v2.737c0,0.581,0.017,1.278,0.066,1.709h-1.692c0.066-0.714,0.1-1.858,0.1-2.819v-1.992
		c0-0.961-0.034-2.106-0.1-2.819c0.581,0,0.995-0.034,1.493-0.082l0.117,1.475c0.629-1.028,1.758-1.624,2.686-1.624
		c1.659,0,2.454,1.028,2.454,2.752v3.399c0,0.581,0.034,1.278,0.067,1.709H77.33z"/>
	<path class="st1" d="M81.958,39.677c0,1.775,1.061,2.653,2.272,2.653c0.812,0,1.575-0.447,1.94-1.16v-3.649
		c-0.398-0.415-0.996-0.696-1.742-0.696C82.869,36.825,81.958,38.119,81.958,39.677z M86.17,36.046l-0.017-1.725
		c0-0.962-0.017-2.024-0.099-2.737c0.597-0.05,1.21-0.116,1.708-0.215c-0.05,0.431-0.067,1.243-0.067,1.807v7.431
		c0,0.962,0.033,1.99,0.116,2.754h-1.409l-0.116-0.829c-0.514,0.663-1.443,1.127-2.339,1.127c-2.156,0-3.516-1.674-3.516-3.797
		c0-2.438,1.692-4.362,3.965-4.362C85.059,35.499,85.739,35.714,86.17,36.046z"/>
	<path class="st1" d="M98.642,43.658c-3.4,0-6.004-2.636-6.004-5.971c0-3.484,2.704-6.269,6.319-6.269
		c1.244,0,2.77,0.447,3.682,1.044l-0.465,1.493c-0.828-0.664-2.255-1.061-3.382-1.061c-2.688,0-4.479,1.974-4.479,4.66
		c0,2.953,2.057,4.644,4.511,4.644c0.929,0,1.659-0.166,2.356-0.531v-2.073c0-0.249,0-0.696-0.034-0.995
		c-0.497-0.017-0.365-0.017-0.879-0.017c-0.829,0-1.31,0.017-2.256,0.05c0.034-0.564,0.034-1.096,0-1.494
		c1.012,0.033,1.51,0.05,2.256,0.05c1.161,0,1.642-0.017,2.621-0.066c-0.083,0.648-0.116,2.953-0.116,4.014v1.294
		C101.843,43.045,100.65,43.658,98.642,43.658z"/>
	<path class="st1" d="M108.095,36.841c-1.409,0-2.322,1.194-2.322,2.687c0,1.841,0.897,2.786,2.257,2.786
		c1.459,0,2.321-1.211,2.321-2.72C110.351,37.82,109.356,36.841,108.095,36.841z M107.946,43.658c-2.255,0-3.682-1.807-3.682-3.881
		c0-2.389,1.543-4.279,3.898-4.279c2.272,0,3.698,1.808,3.698,3.881C111.861,41.768,110.318,43.658,107.946,43.658z"/>
	<path class="st1" d="M114.348,40.739l-0.928-2.123c-0.431-0.978-0.896-2.09-1.278-2.803l1.659-0.215l2.239,5.589l0.962-2.571
		c0.233-0.63,0.812-2.123,1.061-2.919c0.597,0,1.211-0.016,1.692-0.066l-3.234,7.796l-1.044,0.116
		C115.227,42.762,114.763,41.718,114.348,40.739z"/>
	<path class="st1" d="M125.659,38.733c-0.165-1.278-0.696-1.957-1.84-1.957c-1.228,0-2.007,0.895-2.223,2.073L125.659,38.733z
		 M126.091,39.861l-4.528,0.132c0.116,1.542,0.912,2.322,2.388,2.322c1.161,0,2.024-0.514,2.771-1.127l-0.068,1.558
		c-0.846,0.564-1.757,0.912-2.852,0.912c-2.554,0-3.765-1.807-3.765-3.881c0-2.388,1.51-4.278,3.865-4.278
		c2.255,0,3.185,1.691,3.185,3.764L126.091,39.861z"/>
	<path class="st1" d="M132.509,37.257c-1.094-0.199-2.471,0.381-2.471,1.542v2.853c0,0.58,0.017,1.278,0.066,1.708h-1.692
		c0.083-0.714,0.1-1.857,0.1-2.819v-2.322c0-0.962-0.05-1.708-0.166-2.389c0.53-0.017,1.028-0.1,1.509-0.215l0.166,1.509
		c0.63-1.029,1.443-1.476,2.687-1.625L132.509,37.257z"/>
	<path class="st1" d="M138.795,43.36c0.083-0.714,0.117-1.858,0.117-2.819v-1.992c0-0.961-0.316-1.707-1.328-1.707
		c-1.095,0-2.272,1.077-2.272,2.072v2.737c0,0.581,0.017,1.278,0.066,1.709h-1.692c0.067-0.714,0.1-1.858,0.1-2.819v-1.992
		c0-0.961-0.033-2.106-0.1-2.819c0.582,0,0.995-0.034,1.493-0.082l0.117,1.475c0.629-1.028,1.758-1.624,2.686-1.624
		c1.659,0,2.454,1.028,2.454,2.752v3.399c0,0.581,0.034,1.278,0.068,1.709H138.795z"/>
	<path class="st1" d="M151.98,43.36c0.083-0.714,0.116-1.858,0.116-2.819v-1.992c0-0.961-0.265-1.707-1.277-1.707
		c-1.095,0-2.04,0.845-2.04,1.857v2.952c0,0.581,0.017,1.278,0.067,1.709h-1.692c0.066-0.714,0.099-1.858,0.099-2.819v-1.992
		c0-0.961-0.216-1.707-1.227-1.707c-1.079,0-2.04,0.845-2.04,1.857v2.952c0,0.581,0.017,1.278,0.066,1.709h-1.709
		c0.084-0.714,0.117-1.858,0.117-2.819v-1.992c0-0.961-0.033-2.106-0.117-2.819c0.598,0,0.996-0.034,1.493-0.082l0.117,1.26
		c0.679-0.912,1.592-1.409,2.471-1.409c1.227,0,1.94,0.629,2.206,1.475c0.514-0.846,1.443-1.475,2.57-1.475
		c1.659,0,2.421,1.028,2.421,2.752v3.399c0,0.581,0.017,1.278,0.068,1.709H151.98z"/>
	<path class="st1" d="M160.719,38.733c-0.165-1.278-0.696-1.957-1.84-1.957c-1.228,0-2.007,0.895-2.223,2.073L160.719,38.733z
		 M161.151,39.861l-4.528,0.132c0.117,1.542,0.912,2.322,2.388,2.322c1.161,0,2.024-0.514,2.77-1.127l-0.067,1.558
		c-0.845,0.564-1.758,0.912-2.852,0.912c-2.554,0-3.765-1.807-3.765-3.881c0-2.388,1.51-4.278,3.865-4.278
		c2.255,0,3.184,1.691,3.184,3.764L161.151,39.861z"/>
	<path class="st1" d="M168.58,43.36c0.084-0.714,0.117-1.858,0.117-2.819v-1.992c0-0.961-0.315-1.707-1.327-1.707
		c-1.095,0-2.272,1.077-2.272,2.072v2.737c0,0.581,0.017,1.278,0.066,1.709h-1.692c0.066-0.714,0.1-1.858,0.1-2.819v-1.992
		c0-0.961-0.034-2.106-0.1-2.819c0.581,0,0.995-0.034,1.493-0.082l0.116,1.475c0.63-1.028,1.759-1.624,2.687-1.624
		c1.659,0,2.454,1.028,2.454,2.752v3.399c0,0.581,0.034,1.278,0.067,1.709H168.58z"/>
	<path class="st1" d="M176.243,43.161c-0.348,0.282-1.012,0.431-1.51,0.431c-1.442,0-2.039-0.812-2.039-2.256v-4.346h-1.377
		l0.399-1.326h0.995l0.148-1.626l1.36-0.365v1.992h2.041c-0.033,0.365-0.05,0.729-0.05,1.326h-1.991v4.246
		c0,0.779,0.283,0.995,0.846,0.995c0.415,0,0.912-0.182,1.244-0.399L176.243,43.161z"/>
	<path class="st1" d="M10.35,15.228c-1.145-0.017-2.14-0.033-3.434-0.033C6.9,15.559,6.9,15.99,6.9,16.239v5.54
		c0,0.63,0.016,1.924,0.066,2.389H3.433c0.083-0.797,0.116-2.919,0.116-3.997v-2.472c0-0.613-0.016-1.642-0.05-2.504
		c-1.294,0-2.372,0.016-3.5,0.033c0.05-0.846,0.066-1.891,0.066-2.819c1.609,0.05,3.217,0.082,5.158,0.082
		c1.957,0,3.616-0.033,5.258-0.082C10.399,13.304,10.35,14.117,10.35,15.228z"/>
	<path class="st1" d="M16.469,19.275c-0.066-0.895-0.431-1.426-1.177-1.426c-0.795,0-1.327,0.63-1.394,1.493L16.469,19.275z
		 M18.576,20.518l-4.694,0.099c0.066,1.012,0.713,1.576,1.924,1.576c1.311,0,2.272-0.399,3.119-0.845l-0.05,2.139
		c-1.012,0.597-2.123,0.945-3.433,0.945c-3.035,0-4.561-1.857-4.561-4.179c0-2.638,1.874-4.445,4.511-4.445
		c2.62,0,3.798,1.791,3.798,4.014L18.576,20.518z"/>
	<path class="st1" d="M26.802,19.209v2.571c0,0.63,0.017,1.923,0.066,2.388h-3.516c0.083-0.796,0.117-2.919,0.117-3.997v-3.666
		c0-1.061-0.034-3.201-0.117-3.997c0.648,0,2.969-0.016,3.516-0.083c-0.05,0.481-0.066,1.807-0.066,2.455v2.488l1.476-1.974
		c0.531-0.679,1.51-2.024,2.173-2.919h3.798l-4.594,5.573l2.837,3.533c0.463,0.58,1.558,1.908,2.056,2.505l-3.865,0.249
		L26.802,19.209z"/>
	<path class="st1" d="M39.074,21.464l0.034-0.763c-0.133-0.017-0.282-0.017-0.448-0.017c-0.995,0-1.393,0.447-1.393,1.028
		c0,0.548,0.315,0.913,0.829,0.913C38.659,22.625,39.058,22.261,39.074,21.464z M41.662,14.564c-0.78-0.017-1.36-0.033-2.04-0.033
		h-2.073c-0.846,0-1.426,0.016-2.106,0.033c0.033-0.481,0.066-1.343,0.066-1.973c1.029,0.033,1.792,0.049,3.168,0.049
		c0.962,0,2.073-0.016,3.068-0.049C41.694,13.187,41.662,13.918,41.662,14.564z M34.397,22.177c0-1.625,1.361-2.721,4.113-2.721
		c0.166,0,0.382,0.017,0.613,0.034l0.017-0.216c0.017-0.696-0.298-1.077-1.227-1.077c-0.945,0-1.957,0.348-2.588,0.729l-0.348-2.155
		c0.896-0.531,2.272-0.962,3.616-0.962c2.506,0,3.567,1.044,3.533,3.351l-0.066,2.653c-0.017,0.464,0.15,0.58,0.481,0.58
		c0.116,0,0.265-0.05,0.398-0.083l-0.116,1.758c-0.531,0.199-0.961,0.299-1.558,0.299c-0.979,0-1.708-0.331-1.974-1.31
		c-0.464,0.813-1.459,1.31-2.455,1.31C35.342,24.366,34.397,23.554,34.397,22.177z"/>
	<path class="st1" d="M44.762,21.514l-0.796-2.156c-0.364-0.979-0.929-2.506-1.26-3.235c0.431,0,2.587-0.1,3.069-0.133l1.343,4.345
		l0.563-1.608l0.929-2.653l2.04-0.067l1.459,4.345l0.531-1.674c0.05-0.15,0.797-2.405,0.846-2.604c1.145,0,1.958,0,2.886-0.05
		l-3.185,8.161l-2.239,0.083c-0.266-0.83-0.63-1.825-1.012-2.903l-0.431-1.227l-1.559,4.047l-2.239,0.066
		C45.475,23.471,45.127,22.509,44.762,21.514z"/>
	<path class="st1" d="M60.917,21.464l0.033-0.763c-0.133-0.017-0.283-0.017-0.448-0.017c-0.995,0-1.393,0.447-1.393,1.028
		c0,0.549,0.315,0.913,0.829,0.913C60.501,22.625,60.9,22.261,60.917,21.464z M56.239,22.177c0-1.625,1.36-2.721,4.113-2.721
		c0.166,0,0.382,0.017,0.613,0.034l0.017-0.216c0.017-0.696-0.298-1.077-1.227-1.077c-0.945,0-1.957,0.348-2.588,0.729l-0.348-2.156
		c0.896-0.531,2.272-0.962,3.616-0.962c2.504,0,3.567,1.044,3.533,3.351l-0.066,2.653c-0.017,0.464,0.15,0.58,0.481,0.58
		c0.116,0,0.265-0.05,0.398-0.083l-0.116,1.758c-0.531,0.199-0.962,0.299-1.558,0.299c-0.979,0-1.708-0.331-1.974-1.31
		c-0.465,0.813-1.459,1.31-2.455,1.31C57.184,24.367,56.239,23.554,56.239,22.177z"/>
	<path class="st1" d="M70.751,24.168c0.083-0.713,0.099-1.858,0.099-2.819v-1.742c0-0.962-0.183-1.41-0.862-1.41
		c-0.781,0-1.344,0.697-1.344,1.394v2.869c0,0.581,0.017,1.278,0.066,1.709h-3.317c0.066-0.713,0.099-1.858,0.099-2.819V18.86
		c0-0.961-0.033-1.957-0.099-2.67c0.58,0,2.621-0.248,3.118-0.299l0.117,1.791c0.663-1.177,1.874-1.874,3.001-1.874
		c1.609,0,2.372,1.077,2.372,2.869v3.781c0,0.581,0.033,1.278,0.066,1.709L70.751,24.168L70.751,24.168z"/>
	<path class="st1" d="M79.441,21.464l0.033-0.763c-0.133-0.017-0.282-0.017-0.447-0.017c-0.996,0-1.394,0.447-1.394,1.028
		c0,0.549,0.315,0.913,0.829,0.913C79.027,22.625,79.424,22.261,79.441,21.464z M74.764,22.177c0-1.625,1.36-2.721,4.113-2.721
		c0.166,0,0.382,0.017,0.613,0.034l0.017-0.216c0.017-0.696-0.298-1.077-1.227-1.077c-0.945,0-1.957,0.348-2.588,0.729l-0.348-2.156
		c0.896-0.531,2.272-0.962,3.616-0.962c2.505,0,3.567,1.044,3.533,3.351l-0.066,2.653c-0.017,0.464,0.15,0.58,0.481,0.58
		c0.116,0,0.266-0.05,0.398-0.083l-0.116,1.758c-0.531,0.199-0.962,0.299-1.558,0.299c-0.979,0-1.708-0.331-1.974-1.31
		c-0.464,0.813-1.459,1.31-2.455,1.31C75.709,24.367,74.764,23.554,74.764,22.177z"/>
	<path class="st1" d="M89.657,23.985c-0.548,0.282-1.31,0.464-2.09,0.464c-1.824,0-3.002-0.647-3.002-3.035v-3.317h-1.344
		l0.382-2.073h0.995l0.167-1.642l2.952-1.029v2.67h2.039c-0.033,0.365-0.049,1.476-0.049,2.073h-1.99v2.952
		c0,0.863,0.331,1.078,0.846,1.078c0.414,0,0.828-0.149,1.16-0.348L89.657,23.985z"/>
	<path class="st1" d="M94.666,21.464l0.033-0.763c-0.133-0.017-0.282-0.017-0.447-0.017c-0.996,0-1.394,0.447-1.394,1.028
		c0,0.549,0.314,0.913,0.829,0.913C94.252,22.625,94.649,22.261,94.666,21.464z M89.988,22.177c0-1.625,1.36-2.721,4.114-2.721
		c0.165,0,0.382,0.017,0.613,0.034l0.017-0.216c0.017-0.696-0.298-1.077-1.227-1.077c-0.946,0-1.957,0.348-2.588,0.729l-0.348-2.156
		c0.895-0.531,2.272-0.962,3.615-0.962c2.506,0,3.567,1.044,3.533,3.351l-0.066,2.653c-0.017,0.464,0.15,0.58,0.481,0.58
		c0.116,0,0.266-0.05,0.398-0.083l-0.116,1.758c-0.531,0.199-0.962,0.299-1.558,0.299c-0.979,0-1.708-0.331-1.974-1.31
		c-0.465,0.813-1.459,1.31-2.455,1.31C90.933,24.367,89.988,23.554,89.988,22.177z"/>
	<path class="st1" d="M104.5,24.168c0.083-0.713,0.099-1.858,0.099-2.819v-1.742c0-0.962-0.182-1.41-0.862-1.41
		c-0.78,0-1.344,0.697-1.344,1.394v2.869c0,0.581,0.017,1.278,0.066,1.709h-3.317c0.067-0.713,0.1-1.858,0.1-2.819V18.86
		c0-0.961-0.033-1.957-0.1-2.67c0.581,0,2.621-0.248,3.118-0.299l0.117,1.791c0.664-1.177,1.874-1.874,3.002-1.874
		c1.608,0,2.371,1.077,2.371,2.869v3.781c0,0.581,0.033,1.278,0.067,1.709L104.5,24.168L104.5,24.168z"/>
	<path class="st1" d="M112.676,17.715c-0.631,0-1.045,0.431-1.045,1.228c0,0.929,0.431,1.343,1.028,1.343
		c0.63,0,1.028-0.447,1.028-1.261C113.687,18.08,113.224,17.715,112.676,17.715z M111.332,24.881
		c-0.614,0.215-0.862,0.547-0.862,0.812c0,0.431,0.514,0.78,1.708,0.78c1.277,0,2.107-0.498,2.107-0.996
		c0-0.365-0.382-0.514-1.51-0.564h-0.348C112.095,24.897,111.697,24.881,111.332,24.881z M112.593,21.945
		c-0.514,0-0.996-0.049-1.41-0.15c-0.266,0.15-0.382,0.332-0.382,0.465c0,0.265,0.35,0.431,2.007,0.431h0.382
		c2.372,0,3.848,0.564,3.848,2.107c0,1.742-1.991,3.334-5.126,3.334c-2.503,0-3.781-0.896-3.781-2.024
		c0-0.813,0.681-1.41,1.626-1.725c-0.614-0.265-1.029-0.763-1.029-1.377c0-0.613,0.481-1.26,1.294-1.708
		c-0.763-0.498-1.21-1.244-1.21-2.206c0-1.874,1.625-3.284,3.946-3.284c0.548,0,1.046,0.083,1.476,0.216
		c0.1-1.41,0.913-2.156,2.704-1.957l-0.082,2.173c-0.863-0.215-1.327-0.083-1.494,0.381c0.73,0.564,1.145,1.377,1.145,2.24
		C116.507,20.718,114.848,21.945,112.593,21.945z"/>
	<path class="st1" d="M121.731,21.464l0.034-0.763c-0.133-0.017-0.283-0.017-0.449-0.017c-0.995,0-1.392,0.447-1.392,1.028
		c0,0.549,0.314,0.913,0.829,0.913C121.316,22.625,121.715,22.261,121.731,21.464z M117.054,22.177c0-1.625,1.361-2.721,4.113-2.721
		c0.166,0,0.382,0.017,0.613,0.034l0.017-0.216c0.017-0.696-0.298-1.077-1.227-1.077c-0.945,0-1.957,0.348-2.588,0.729l-0.348-2.156
		c0.896-0.531,2.273-0.962,3.616-0.962c2.505,0,3.567,1.044,3.533,3.351l-0.066,2.653c-0.017,0.464,0.15,0.58,0.481,0.58
		c0.116,0,0.265-0.05,0.398-0.083l-0.116,1.758c-0.531,0.199-0.962,0.299-1.559,0.299c-0.979,0-1.708-0.331-1.974-1.31
		c-0.465,0.813-1.459,1.31-2.455,1.31C117.999,24.367,117.054,23.554,117.054,22.177z"/>
	<path class="st1" d="M133.257,17.998c-0.813,0-1.327,0.664-1.327,2.056c0,1.626,0.531,2.206,1.261,2.206
		c0.828,0,1.343-0.63,1.343-2.057C134.534,18.529,133.971,17.998,133.257,17.998z M133.108,24.466c-2.571,0-4.23-1.808-4.23-4.13
		c0-2.636,1.775-4.527,4.445-4.527c2.588,0,4.263,1.807,4.263,4.13C137.586,22.576,135.795,24.466,133.108,24.466z"/>
	<path class="st1" d="M145.58,20.021h2.67l-1.344-3.6L145.58,20.021z M144.286,15.676c0.581-1.377,0.963-2.24,1.277-3.168
		l2.67-0.166l3.633,8.425c0.431,1.028,1.061,2.372,1.526,3.4l-3.533,0.133l-0.896-2.223H144.9c-0.216,0.547-0.697,1.858-0.796,2.09
		h-3.45L144.286,15.676z"/>
	<path class="st1" d="M157.853,17.998c-0.814,0-1.327,0.664-1.327,2.056c0,1.626,0.53,2.206,1.26,2.206
		c0.829,0,1.343-0.63,1.343-2.057C159.129,18.529,158.565,17.998,157.853,17.998z M157.703,24.466c-2.571,0-4.229-1.808-4.229-4.13
		c0-2.636,1.775-4.527,4.444-4.527c2.588,0,4.263,1.807,4.263,4.13C162.181,22.576,160.39,24.466,157.703,24.466z"/>
	<path class="st1" d="M168.715,23.985c-0.547,0.282-1.31,0.464-2.09,0.464c-1.824,0-3.001-0.647-3.001-3.035v-3.317h-1.343
		l0.381-2.073h0.994l0.167-1.642l2.952-1.029v2.67h2.04c-0.034,0.365-0.05,1.476-0.05,2.073h-1.99v2.952
		c0,0.863,0.331,1.078,0.846,1.078c0.414,0,0.829-0.149,1.16-0.348L168.715,23.985z"/>
	<path class="st1" d="M174.751,19.275c-0.066-0.895-0.431-1.426-1.177-1.426c-0.796,0-1.327,0.63-1.394,1.493L174.751,19.275z
		 M176.858,20.518l-4.694,0.099c0.066,1.012,0.714,1.576,1.924,1.576c1.311,0,2.272-0.399,3.118-0.845l-0.049,2.139
		c-1.012,0.597-2.123,0.945-3.433,0.945c-3.035,0-4.561-1.857-4.561-4.179c0-2.638,1.874-4.445,4.511-4.445
		c2.62,0,3.798,1.791,3.798,4.014L176.858,20.518z"/>
	<path class="st1" d="M182.447,21.464l0.034-0.763c-0.133-0.017-0.282-0.017-0.449-0.017c-0.994,0-1.392,0.447-1.392,1.028
		c0,0.549,0.314,0.913,0.829,0.913C182.033,22.625,182.431,22.261,182.447,21.464z M177.77,22.177c0-1.625,1.361-2.721,4.114-2.721
		c0.165,0,0.382,0.017,0.613,0.034l0.017-0.216c0.017-0.696-0.298-1.077-1.227-1.077c-0.946,0-1.957,0.348-2.588,0.729l-0.348-2.156
		c0.895-0.531,2.272-0.962,3.615-0.962c2.506,0,3.567,1.044,3.533,3.351l-0.066,2.653c-0.017,0.464,0.15,0.58,0.481,0.58
		c0.116,0,0.266-0.05,0.398-0.083l-0.116,1.758c-0.531,0.199-0.961,0.299-1.558,0.299c-0.979,0-1.708-0.331-1.974-1.31
		c-0.465,0.813-1.459,1.31-2.455,1.31C178.715,24.367,177.77,23.554,177.77,22.177z"/>
	<path class="st1" d="M192.879,18.695c-1.393-0.15-2.704,0.182-2.704,1.725v2.04c0,0.58,0.017,1.277,0.067,1.709h-3.317
		c0.083-0.713,0.099-1.858,0.099-2.82v-2.57c0-0.963-0.049-1.858-0.116-2.571c0.564,0,2.621-0.266,3.118-0.332l0.133,2.057
		c0.464-1.194,1.443-2.008,2.919-2.124L192.879,18.695z"/>
	<path class="st1" d="M197.622,17.998c-0.813,0-1.327,0.664-1.327,2.056c0,1.626,0.53,2.206,1.261,2.206
		c0.828,0,1.343-0.63,1.343-2.057C198.899,18.529,198.334,17.998,197.622,17.998z M197.472,24.466c-2.571,0-4.229-1.808-4.229-4.13
		c0-2.636,1.775-4.527,4.445-4.527c2.587,0,4.263,1.807,4.263,4.13C201.951,22.576,200.159,24.466,197.472,24.466z"/>
	<path class="st1" d="M206.96,21.464l0.033-0.763c-0.133-0.017-0.283-0.017-0.449-0.017c-0.995,0-1.392,0.447-1.392,1.028
		c0,0.549,0.314,0.913,0.829,0.913C206.544,22.625,206.943,22.261,206.96,21.464z M202.282,22.177c0-1.625,1.36-2.721,4.113-2.721
		c0.166,0,0.382,0.017,0.613,0.034l0.017-0.216c0.017-0.696-0.298-1.077-1.227-1.077c-0.945,0-1.957,0.348-2.588,0.729l-0.348-2.156
		c0.896-0.531,2.273-0.962,3.616-0.962c2.505,0,3.567,1.044,3.533,3.351l-0.066,2.653c-0.017,0.464,0.15,0.58,0.481,0.58
		c0.116,0,0.265-0.05,0.398-0.083l-0.116,1.758c-0.531,0.199-0.963,0.299-1.559,0.299c-0.979,0-1.708-0.331-1.974-1.31
		c-0.465,0.813-1.459,1.31-2.455,1.31C203.227,24.367,202.282,23.554,202.282,22.177z"/>
</g>
</svg>
